<svg width="100" height="100" viewBox="0 0 100 100" fill="none" xmlns="http://www.w3.org/2000/svg">
<rect width="100" height="100" rx="12" fill="#111111"/>
<g filter="url(#filter0_d_75_46)">
<path d="M67.1242 81L70 76.9881L66.1308 74.6393C65.2434 74.1005 64.7477 73.0908 64.8606 72.0525L65.3536 67.5257L60.838 67.4423C59.8024 67.4232 58.8724 66.7986 58.4554 65.8425L56.6376 61.6736L52.6856 63.8781C51.7793 64.3836 50.6642 64.3118 49.829 63.6939L46.1875 61L43.8581 64.9016C43.3239 65.7965 42.3226 66.2963 41.2929 66.1824L36.8035 65.6853L36.7208 70.2387C36.7018 71.283 36.0825 72.2208 35.1343 72.6413L31 74.4743L33.1862 78.4593C33.6875 79.3733 33.7039 80.142 33.214 80.9999L67.1242 81Z" fill="#FFCD00"/>
</g>
<g filter="url(#filter1_i_75_46)">
<path d="M41.9 20.52H58.952L77.432 81H65.672L50.3 31.272L35.18 81H23.42L41.9 20.52Z" fill="#FFB919"/>
</g>
<g opacity="0.53">
<path d="M42.1211 81C42.1211 76.6103 45.7406 73.0517 50.2055 73.0517C54.6704 73.0517 58.2899 76.6103 58.2899 81H42.1211Z" fill="#FFEB99"/>
<path d="M39.7697 81L38 78.5929L40.381 77.1835C40.9272 76.8603 41.2322 76.2545 41.1627 75.6315L40.8593 72.9154L43.6381 72.8653C44.2754 72.8539 44.8478 72.4792 45.1044 71.9055L46.223 69.4042L48.655 70.7268C49.2128 71.0302 49.8989 70.9871 50.4129 70.6163L52.6538 69L54.0873 71.3409C54.4161 71.8779 55.0323 72.1778 55.6659 72.1094L58.4286 71.8112L58.4795 74.5432C58.4912 75.1698 58.8723 75.7325 59.4558 75.9847L62 77.0846L60.6547 79.4756C60.3461 80.024 60.3361 80.4852 60.6376 80.9999L39.7697 81Z" fill="#FFEB99"/>
</g>
<defs>
<filter id="filter0_d_75_46" x="15" y="41" width="71" height="52" filterUnits="userSpaceOnUse" color-interpolation-filters="sRGB">
<feFlood flood-opacity="0" result="BackgroundImageFix"/>
<feColorMatrix in="SourceAlpha" type="matrix" values="0 0 0 0 0 0 0 0 0 0 0 0 0 0 0 0 0 0 127 0" result="hardAlpha"/>
<feOffset dy="-4"/>
<feGaussianBlur stdDeviation="8"/>
<feComposite in2="hardAlpha" operator="out"/>
<feColorMatrix type="matrix" values="0 0 0 0 1 0 0 0 0 0.803922 0 0 0 0 0 0 0 0 0.83 0"/>
<feBlend mode="normal" in2="BackgroundImageFix" result="effect1_dropShadow_75_46"/>
<feBlend mode="normal" in="SourceGraphic" in2="effect1_dropShadow_75_46" result="shape"/>
</filter>
<filter id="filter1_i_75_46" x="23.4199" y="20.5195" width="54.0122" height="66.4805" filterUnits="userSpaceOnUse" color-interpolation-filters="sRGB">
<feFlood flood-opacity="0" result="BackgroundImageFix"/>
<feBlend mode="normal" in="SourceGraphic" in2="BackgroundImageFix" result="shape"/>
<feColorMatrix in="SourceAlpha" type="matrix" values="0 0 0 0 0 0 0 0 0 0 0 0 0 0 0 0 0 0 127 0" result="hardAlpha"/>
<feOffset dy="7"/>
<feGaussianBlur stdDeviation="3"/>
<feComposite in2="hardAlpha" operator="arithmetic" k2="-1" k3="1"/>
<feColorMatrix type="matrix" values="0 0 0 0 1 0 0 0 0 0.803922 0 0 0 0 0 0 0 0 0.21 0"/>
<feBlend mode="normal" in2="shape" result="effect1_innerShadow_75_46"/>
</filter>
</defs>
</svg>
